<?xml version="1.0" standalone="no"?>
<!DOCTYPE svg PUBLIC "-//W3C//DTD SVG 20010904//EN"
 "http://www.w3.org/TR/2001/REC-SVG-20010904/DTD/svg10.dtd">
<svg version="1.0" xmlns="http://www.w3.org/2000/svg"
 width="700.000000pt" height="700.000000pt" viewBox="0 0 700.000000 700.000000"
 preserveAspectRatio="xMidYMid meet">
<metadata>
Created by potrace 1.14, written by Peter Selinger 2001-2017
</metadata>
<g transform="translate(0.000000,700.000000) scale(0.100000,-0.100000)"
fill="#000000" stroke="none">
<path d="M3280 6994 c-19 -2 -84 -9 -145 -14 -639 -62 -1264 -315 -1795 -726
-149 -115 -481 -446 -595 -594 -410 -532 -653 -1132 -727 -1795 -17 -155 -17
-575 0 -730 75 -673 334 -1304 748 -1820 116 -145 340 -373 484 -494 534 -449
1166 -719 1875 -801 50 -6 173 -13 275 -17 823 -26 1633 244 2285 763 142 114
371 338 494 484 451 537 715 1158 803 1885 16 136 16 592 0 730 -86 725 -351
1347 -803 1885 -127 151 -376 393 -519 504 -524 406 -1092 640 -1750 722 -117
15 -552 27 -630 18z m-606 -1934 c133 -164 191 -228 199 -221 7 5 93 109 192
230 l180 221 951 0 952 0 53 -57 c342 -375 552 -821 620 -1323 7 -52 13 -180
13 -285 0 -278 -33 -485 -121 -749 -278 -836 -1011 -1443 -1898 -1572 -146
-21 -467 -24 -605 -5 -607 82 -1156 386 -1529 844 -208 256 -376 590 -456 906
-134 535 -79 1090 159 1586 102 212 215 381 376 563 l83 92 321 0 321 0 189
-230z"/>
<path d="M2074 4718 c-363 -380 -546 -915 -494 -1439 63 -625 443 -1171 1011
-1455 285 -143 649 -213 954 -185 834 79 1481 662 1647 1481 20 100 23 145 23
340 0 195 -3 240 -23 339 -70 348 -234 668 -461 904 l-55 57 -736 0 -736 0
-143 -175 c-79 -96 -147 -178 -152 -180 -4 -3 -74 76 -155 175 l-147 180 -246
0 -247 0 -40 -42z m2118 -469 c236 -50 407 -298 369 -539 -30 -196 -171 -350
-362 -395 -309 -72 -589 151 -589 470 0 131 46 240 140 335 118 117 277 164
442 129z m-1360 -14 c72 -9 175 -66 241 -132 270 -270 143 -721 -229 -818
-143 -37 -308 2 -431 101 -124 101 -194 306 -159 472 45 214 216 361 451 385
30 3 43 2 127 -8z m689 -1345 c190 -36 350 -192 390 -381 16 -73 6 -204 -19
-262 -36 -81 -117 -99 -177 -39 -26 26 -27 30 -19 87 4 33 8 89 8 125 0 147
-116 262 -267 263 -256 2 -376 -310 -184 -479 29 -25 69 -48 104 -59 78 -25
103 -52 103 -110 0 -39 -5 -52 -31 -77 -28 -29 -34 -30 -85 -25 -114 12 -251
104 -325 218 -73 114 -93 281 -50 409 80 234 315 375 552 330z"/>
<path d="M4018 4037 c-89 -25 -166 -106 -188 -197 -26 -110 23 -230 118 -286
225 -135 487 93 382 333 -24 57 -83 117 -134 138 -50 21 -126 26 -178 12z"/>
<path d="M2650 4021 c-196 -60 -256 -314 -109 -460 128 -129 349 -92 433 73
92 179 -40 398 -239 395 -33 0 -71 -4 -85 -8z"/>
</g>
</svg>
