<?xml version="1.0" standalone="no"?>
<!DOCTYPE svg PUBLIC "-//W3C//DTD SVG 20010904//EN"
 "http://www.w3.org/TR/2001/REC-SVG-20010904/DTD/svg10.dtd">
<svg version="1.0" xmlns="http://www.w3.org/2000/svg"
 width="1200.000000pt" height="1200.000000pt" viewBox="0 0 1200.000000 1200.000000"
 preserveAspectRatio="xMidYMid meet">
<metadata>
Created by potrace 1.14, written by Peter Selinger 2001-2017
</metadata>
<g transform="translate(0.000000,1200.000000) scale(0.100000,-0.100000)"
fill="#000000" stroke="none">
<path d="M5718 11995 c-2 -1 -55 -6 -118 -9 -122 -8 -179 -12 -247 -21 -24 -3
-64 -7 -90 -10 -262 -30 -637 -106 -918 -186 -122 -35 -440 -141 -449 -150 -6
-5 -15 -9 -22 -9 -6 0 -29 -8 -50 -17 -22 -9 -41 -17 -44 -18 -6 -1 -145 -59
-225 -94 -78 -34 -394 -192 -465 -232 -127 -72 -199 -115 -265 -157 -126 -81
-180 -117 -183 -124 -2 -5 -8 -8 -13 -8 -5 0 -57 -35 -115 -77 -58 -43 -116
-85 -128 -93 -32 -22 -275 -219 -321 -260 -21 -19 -64 -57 -95 -85 -65 -58
-355 -348 -420 -420 -25 -28 -81 -93 -125 -145 -44 -52 -82 -97 -86 -100 -3
-3 -62 -79 -130 -170 -142 -189 -268 -376 -384 -572 -256 -431 -484 -975 -618
-1473 -63 -234 -133 -578 -152 -750 -4 -33 -9 -69 -11 -80 -2 -11 -6 -53 -10
-93 -3 -40 -7 -82 -9 -92 -26 -137 -26 -887 0 -1120 3 -19 7 -58 10 -86 3 -29
7 -60 9 -70 2 -11 7 -46 10 -79 4 -33 11 -86 17 -118 6 -32 12 -70 14 -85 1
-15 6 -45 10 -67 4 -22 9 -49 11 -60 4 -24 42 -199 51 -235 3 -14 7 -29 8 -35
2 -5 10 -39 20 -75 9 -36 18 -72 20 -81 11 -53 135 -447 155 -494 5 -11 30
-74 55 -140 189 -486 455 -962 778 -1395 56 -74 106 -140 112 -146 5 -6 24
-29 40 -50 122 -156 469 -523 630 -664 33 -29 76 -67 95 -84 30 -27 103 -88
163 -136 11 -8 24 -20 31 -25 6 -6 65 -51 131 -101 197 -149 498 -345 709
-461 93 -51 439 -221 506 -248 25 -10 68 -28 95 -41 156 -68 631 -229 738
-250 11 -2 43 -10 71 -18 223 -63 636 -134 936 -162 290 -26 818 -26 1100 1
25 2 72 7 105 10 33 3 87 10 120 15 33 5 83 11 110 15 28 3 59 8 70 10 11 3
38 7 60 10 124 17 445 91 640 146 91 26 401 127 440 144 17 7 100 40 185 75
250 101 613 284 828 418 21 12 44 25 52 29 8 4 24 15 34 25 11 10 23 18 28 18
10 0 132 83 136 93 2 4 8 7 13 7 8 0 111 72 191 132 9 7 26 20 38 28 37 25
246 193 294 235 6 6 50 44 96 84 198 174 486 475 661 691 128 157 227 292 323
436 47 71 90 134 95 140 4 5 21 32 36 60 15 27 35 60 45 74 65 95 251 454 343
665 169 385 323 867 381 1190 7 36 14 71 21 105 10 47 15 75 20 110 3 19 6 44
9 55 9 45 20 123 30 215 3 25 8 65 11 90 3 25 7 63 10 84 27 242 27 857 0
1111 -1 17 -6 62 -10 100 -3 39 -8 81 -10 95 -2 14 -7 48 -10 75 -3 28 -11 76
-16 108 -6 32 -12 70 -14 85 -1 15 -6 45 -10 67 -4 22 -9 49 -11 60 -26 146
-109 474 -168 660 -259 822 -675 1551 -1266 2220 -47 54 -406 412 -450 450
-20 17 -65 55 -100 86 -36 30 -74 63 -85 72 -11 9 -40 32 -65 53 -186 153
-683 494 -721 494 -5 0 -9 4 -9 9 0 5 -8 11 -17 14 -10 3 -54 27 -98 52 -73
42 -367 189 -490 245 -463 211 -1114 393 -1640 459 -125 16 -165 20 -235 26
-36 3 -87 8 -115 11 -53 6 -711 14 -717 9z"/>
</g>
</svg>
