<?xml version="1.0" standalone="no"?>
<!DOCTYPE svg PUBLIC "-//W3C//DTD SVG 20010904//EN"
 "http://www.w3.org/TR/2001/REC-SVG-20010904/DTD/svg10.dtd">
<svg version="1.0" xmlns="http://www.w3.org/2000/svg"
 width="512.000000pt" height="512.000000pt" viewBox="0 0 512.000000 512.000000"
 preserveAspectRatio="xMidYMid meet">
<metadata>
Created by potrace 1.14, written by Peter Selinger 2001-2017
</metadata>
<g transform="translate(0.000000,512.000000) scale(0.100000,-0.100000)"
fill="#000000" stroke="none">
<path d="M2427 4874 c-1 -1 -38 -4 -82 -8 -44 -3 -89 -7 -100 -10 -11 -2 -42
-7 -70 -11 -251 -36 -600 -164 -817 -302 -21 -12 -40 -23 -43 -23 -3 0 -11 -5
-18 -10 -7 -6 -48 -36 -92 -67 -379 -266 -692 -685 -845 -1128 -39 -112 -82
-282 -95 -371 -4 -22 -8 -46 -10 -54 -18 -67 -26 -452 -12 -565 4 -33 10 -82
13 -110 5 -48 38 -206 48 -236 3 -8 7 -25 10 -39 14 -77 103 -306 174 -445
176 -345 502 -707 797 -885 22 -13 42 -27 45 -31 10 -13 275 -148 351 -178
314 -123 580 -171 924 -166 94 2 188 6 210 9 22 4 72 11 110 17 346 52 742
220 1020 433 134 103 300 260 391 371 27 33 51 62 54 65 6 6 43 58 95 135 212
312 354 716 383 1090 11 153 4 452 -13 515 -2 8 -7 35 -10 60 -23 163 -80 359
-158 540 -138 322 -364 629 -626 850 -30 25 -59 50 -65 55 -6 6 -27 22 -46 35
-19 13 -37 27 -40 30 -3 3 -30 21 -60 40 -30 19 -57 37 -60 41 -12 14 -215
121 -311 162 -223 97 -466 160 -704 183 -65 6 -343 13 -348 8z"/>
</g>
</svg>
